HIERARCHY
ROOT Hips
{
	OFFSET 0.000000 0.000000 0.000000
	CHANNELS 6 Xposition Yposition Zposition Xrotation Yrotation Zrotation
	JOINT LeftUpLeg_virtual
	{
		OFFSET 0.000000 0.000000 0.000000
		CHANNELS 3 Xrotation Yrotation Zrotation
		JOINT LeftUpLeg
		{
			OFFSET 11.394100 -6.187798 -0.413800
			CHANNELS 3 Xrotation Yrotation Zrotation
			JOINT LeftLeg
			{
				OFFSET 0.430247 -32.302673 3.732800
				CHANNELS 3 Xrotation Yrotation Zrotation
				JOINT LeftFoot
				{
					OFFSET -0.430247 -48.264931 -6.423300
					CHANNELS 3 Xrotation Yrotation Zrotation
					JOINT LeftToeBase
					{
						OFFSET 4.230900 -16.068199 23.438400
						CHANNELS 3 Xrotation Yrotation Zrotation
						JOINT LeftToe_End
						{
							OFFSET 4.510700 0.695400 19.974600
							CHANNELS 3 Xrotation Yrotation Zrotation
							End Site
							{
								OFFSET 0 0 0
							}
						}
					}
				}
			}
		}
	}
	JOINT RightUpLeg_virtual
	{
		OFFSET 0.000000 0.000000 0.000000
		CHANNELS 3 Xrotation Yrotation Zrotation
		JOINT RightUpLeg
		{
			OFFSET -11.333700 -6.187798 -0.413800
			CHANNELS 3 Xrotation Yrotation Zrotation
			JOINT RightLeg
			{
				OFFSET -0.430392 -32.302628 3.733000
				CHANNELS 3 Xrotation Yrotation Zrotation
				JOINT RightFoot
				{
					OFFSET 0.430392 -48.264973 -6.423500
					CHANNELS 3 Xrotation Yrotation Zrotation
					JOINT RightToeBase
					{
						OFFSET -4.230900 -16.068199 23.438400
						CHANNELS 3 Xrotation Yrotation Zrotation
						JOINT RightToe_End
						{
							OFFSET -4.510700 0.695400 19.974600
							CHANNELS 3 Xrotation Yrotation Zrotation
							End Site
							{
								OFFSET 0 0 0
							}
						}
					}
				}
			}
		}
	}
	JOINT Spine_virtual
	{
		OFFSET 0.000000 0.000000 0.000000
		CHANNELS 3 Xrotation Yrotation Zrotation
		JOINT Spine
		{
			OFFSET -0.002400 12.777504 0.315300
			CHANNELS 3 Xrotation Yrotation Zrotation
			JOINT Spine1
			{
				OFFSET -0.002067 5.816869 0.032633
				CHANNELS 3 Xrotation Yrotation Zrotation
				JOINT Spine1_split
				{
					OFFSET -0.002067 5.816869 0.032633
					CHANNELS 3 Xrotation Yrotation Zrotation
					JOINT Spine2
					{
						OFFSET -0.002067 5.816869 0.032633
						CHANNELS 3 Xrotation Yrotation Zrotation
						JOINT Neck_virtual
						{
							OFFSET 0.000000 0.000000 0.000000
							CHANNELS 3 Xrotation Yrotation Zrotation
							JOINT Neck
							{
								OFFSET -0.003700 21.199493 -0.826900
								CHANNELS 3 Xrotation Yrotation Zrotation
								JOINT Head
								{
									OFFSET 0.000000 20.442200 4.834800
									CHANNELS 3 Xrotation Yrotation Zrotation
									JOINT HeadTop_End
									{
										OFFSET 0.000000 34.668396 4.968400
										CHANNELS 3 Xrotation Yrotation Zrotation
										End Site
										{
											OFFSET 0 0 0
										}
									}
								}
							}
						}
						JOINT LeftShoulder_virtual
						{
							OFFSET 0.000000 0.000000 0.000000
							CHANNELS 3 Xrotation Yrotation Zrotation
							JOINT LeftShoulder
							{
								OFFSET 3.288150 8.794197 -1.372250
								CHANNELS 3 Xrotation Yrotation Zrotation
								JOINT LeftShoulder_split
								{
									OFFSET 3.288150 8.794197 -1.372250
									CHANNELS 3 Xrotation Yrotation Zrotation
									JOINT LeftArm
									{
										OFFSET 11.953299 -2.279007 -0.146200
										CHANNELS 3 Xrotation Yrotation Zrotation
										JOINT LeftForeArm
										{
											OFFSET 18.448900 0.000000 0.000000
											CHANNELS 3 Xrotation Yrotation Zrotation
											JOINT LeftHand
											{
												OFFSET 29.527798 0.000000 0.000000
												CHANNELS 3 Xrotation Yrotation Zrotation
												End Site
												{
													OFFSET 0 0 0
												}
											}
										}
									}
								}
							}
						}
						JOINT RightShoulder_virtual
						{
							OFFSET 0.000000 0.000000 0.000000
							CHANNELS 3 Xrotation Yrotation Zrotation
							JOINT RightShoulder
							{
								OFFSET -3.249400 8.794197 -1.372250
								CHANNELS 3 Xrotation Yrotation Zrotation
								JOINT RightShoulder_split
								{
									OFFSET -3.249400 8.794197 -1.372250
									CHANNELS 3 Xrotation Yrotation Zrotation
									JOINT RightArm
									{
										OFFSET -11.953299 -2.279007 -0.146200
										CHANNELS 3 Xrotation Yrotation Zrotation
										JOINT RightForeArm
										{
											OFFSET -18.448900 0.000000 0.000000
											CHANNELS 3 Xrotation Yrotation Zrotation
											JOINT RightHand
											{
												OFFSET -29.527802 0.000000 0.000000
												CHANNELS 3 Xrotation Yrotation Zrotation
												End Site
												{
													OFFSET 0 0 0
												}
											}
										}
									}
								}
							}
						}
					}
				}
			}
		}
	}
}
MOTION
Frames: 8
Frame Time: 0.03333333
5.753438 94.758446 111.710571 0.000000 0.000000 0.000000 22.235973 26.349891 -7.505507 -49.166444 7.795109 15.475294 44.370391 12.603429 -4.386732 1.773801 28.156051 -6.648648 -9.894773 0.481142 -1.477420 0.000000 0.000000 0.000000 23.579406 25.283573 -8.339583 -62.330558 -6.380945 -3.849191 33.753958 -6.776871 -5.829166 4.456027 -6.148332 4.116327 2.063918 -0.759189 -0.899478 0.000000 0.000000 0.000000 21.704227 22.284578 -7.080201 11.634316 -1.185633 3.080412 8.423309 -2.640222 0.614332 0.676898 3.503387 0.045277 0.000000 0.000000 0.000000 8.795490 -2.852490 0.490543 -6.178382 0.196358 2.815360 -20.640932 0.855846 1.864036 0.000000 0.000000 0.000000 9.008343 -2.918198 0.590660 0.680140 -8.967908 -6.438073 4.243709 -4.507859 0.888988 -26.711427 -22.849452 -31.631077 0.046041 -25.803391 0.064515 0.000000 0.000000 0.000000 9.321848 -2.619180 0.809403 2.108700 5.385697 4.571955 4.200562 3.394555 -0.865183 -16.923658 -8.452603 54.220063 1.010907 64.043037 -1.291349 0.000000 0.000000 0.000000 
6.214164 97.652878 114.326508 0.000000 0.000000 0.000000 23.056437 28.844121 -8.292335 -50.965461 7.715161 13.000543 37.379245 11.952224 -3.848689 5.984134 27.563539 -8.679359 -9.022282 0.061778 -0.254123 0.000000 0.000000 0.000000 24.165561 28.203304 -9.123674 -54.803676 -8.754067 -3.877233 26.826924 -7.272327 -6.341576 3.818438 -7.528566 4.907544 1.266507 -0.542293 -0.555521 0.000000 0.000000 0.000000 22.141376 24.042916 -7.574349 11.123061 -0.058187 2.997091 8.764998 -2.353403 0.655537 0.579013 3.923061 -0.035551 0.000000 0.000000 0.000000 9.048817 -2.585098 0.551177 -5.600402 -0.236144 2.181588 -23.136907 -1.933522 0.644384 0.000000 0.000000 0.000000 9.284198 -2.643092 0.503321 0.907490 -8.608636 -6.445175 4.606887 -4.595911 0.849880 -23.967586 -23.290330 -31.390662 0.396036 -24.662599 0.236006 0.000000 0.000000 0.000000 9.747461 -2.278730 0.848256 2.097503 5.694905 4.780335 3.837555 3.183509 -0.688587 -18.696854 -9.693389 55.443497 0.116305 68.137516 -0.591611 0.000000 0.000000 0.000000 
6.760164 98.932739 116.876846 0.000000 0.000000 0.000000 23.309832 30.618171 -8.949254 -52.727667 7.434913 11.356878 31.940622 11.893649 -3.629212 9.312612 27.702446 -9.608599 -6.818398 -0.140361 0.300598 0.000000 0.000000 0.000000 24.280744 30.547396 -9.775311 -48.358767 -10.958022 -3.684734 22.956059 -7.492788 -6.633770 1.789455 -9.055327 5.699714 0.101554 -0.231418 -0.545249 0.000000 0.000000 0.000000 21.933997 25.758831 -7.951951 10.696779 0.969102 3.090484 9.017153 -2.016075 0.532756 0.360575 4.182469 -0.288678 0.000000 0.000000 0.000000 9.163417 -2.305859 0.478506 -5.248715 -0.505475 1.232413 -25.454611 -4.691087 -0.675563 0.000000 0.000000 0.000000 9.562882 -2.345266 0.299101 1.100902 -7.863221 -6.327263 4.527478 -4.617267 0.794265 -21.197752 -22.771260 -31.095727 0.762822 -25.584487 0.478500 0.000000 0.000000 0.000000 10.119329 -1.942676 0.720482 2.046354 6.209067 4.947982 3.466664 3.025306 -0.468922 -19.277038 -10.207669 56.904471 -0.822248 72.918540 0.233779 0.000000 0.000000 0.000000 
7.335531 98.470299 119.388870 0.000000 0.000000 0.000000 22.751481 31.703853 -9.354860 -54.635274 6.977733 10.244225 28.973096 12.191749 -3.508764 11.023491 28.242844 -9.074019 -4.966168 -0.218137 0.748298 0.000000 0.000000 0.000000 23.908761 32.382760 -10.234534 -43.362750 -12.716155 -3.299275 23.094415 -7.534534 -6.614546 -2.345641 -10.769637 5.958688 -0.469486 0.123902 -0.924638 0.000000 0.000000 0.000000 21.183147 27.621290 -8.292534 10.365682 1.924258 3.277400 9.087020 -1.564704 0.243375 0.309504 4.258203 -0.408976 0.000000 0.000000 0.000000 9.109322 -1.953398 0.257548 -5.155929 -0.804057 0.118583 -27.226148 -7.510988 -1.811056 0.000000 0.000000 0.000000 9.733451 -1.960152 0.010777 1.256407 -6.786709 -5.995606 4.148389 -4.655868 0.858170 -18.653805 -21.300348 -30.787757 1.098822 -28.826294 0.728152 0.000000 0.000000 0.000000 10.353300 -1.531962 0.435912 1.963755 6.957972 4.975029 3.165728 2.958071 -0.315982 -18.898725 -9.809577 58.670779 -1.400665 77.491577 0.764919 0.000000 0.000000 0.000000 
7.905124 96.707809 122.039795 0.000000 0.000000 0.000000 21.572813 32.492450 -9.559248 -56.949014 6.372246 9.487185 28.765222 12.457894 -3.548068 11.588354 28.304862 -7.673477 -4.471331 -0.198094 1.169919 0.000000 0.000000 0.000000 23.052807 33.604196 -10.503015 -39.735852 -13.891653 -2.759799 26.750605 -7.398543 -6.256797 -8.145873 -12.521426 5.693533 -0.574716 0.403710 -1.581809 0.000000 0.000000 0.000000 20.208015 29.709725 -8.642586 10.063351 2.812390 3.391978 8.894907 -0.992856 -0.143625 0.541151 4.178605 -0.452545 0.000000 0.000000 0.000000 8.874280 -1.453075 -0.073739 -5.273571 -1.190759 -0.975052 -28.272612 -10.444022 -2.485228 0.000000 0.000000 0.000000 9.696441 -1.418760 -0.304529 1.357393 -5.499341 -5.403547 3.646748 -4.607982 0.804873 -16.545638 -19.250253 -30.469539 1.281853 -33.933005 0.885519 0.000000 0.000000 0.000000 10.321192 -1.000204 0.063693 1.850209 7.878422 4.829949 2.963480 3.006612 -0.264521 -18.074993 -8.857318 60.608401 -1.138916 81.156977 0.440534 0.000000 0.000000 0.000000 
8.568121 94.623322 124.852280 0.000000 0.000000 0.000000 20.109701 33.377314 -9.719620 -59.408794 5.919653 9.167902 30.743317 12.604002 -3.815123 11.847402 27.472624 -5.767147 -5.581135 -0.184577 1.722927 0.000000 0.000000 0.000000 21.953621 34.792652 -10.717999 -36.981270 -14.717099 -2.161120 32.265151 -7.035318 -5.720300 -14.326038 -14.066451 5.132189 -0.643430 0.604281 -2.383256 0.000000 0.000000 0.000000 19.297658 32.032511 -9.076923 9.657480 3.578755 3.271775 8.380884 -0.311037 -0.530292 0.752964 3.829545 -0.429233 0.000000 0.000000 0.000000 8.459855 -0.803602 -0.433151 -5.453302 -1.804587 -1.942302 -28.415996 -13.533366 -2.504737 0.000000 0.000000 0.000000 9.333584 -0.704749 -0.567855 1.397026 -4.231781 -4.607428 3.087955 -4.575391 0.589238 -14.945704 -17.038231 -30.027345 1.251595 -39.955838 0.913798 0.000000 0.000000 0.000000 9.916550 -0.351822 -0.317717 1.729649 8.775639 4.496216 2.913093 2.977000 -0.323453 -17.399502 -7.829842 62.516831 0.681635 83.812801 -1.499058 0.000000 0.000000 0.000000 
9.340384 93.064125 128.044678 0.000000 0.000000 0.000000 18.819251 34.496926 -10.037522 -61.559457 5.722870 8.949278 34.011887 12.810116 -4.168798 12.474626 26.009488 -3.806309 -6.216933 -0.096212 1.516249 0.000000 0.000000 0.000000 20.888851 35.918674 -10.988813 -34.329053 -15.532166 -1.468921 37.203651 -6.339024 -5.229249 -19.202983 -15.106777 4.540022 -1.159690 0.769449 -3.018833 0.000000 0.000000 0.000000 18.590257 34.430181 -9.665652 9.023517 4.172718 2.822021 7.539749 0.406437 -0.832109 1.053291 3.478322 -0.153977 0.000000 0.000000 0.000000 7.860002 -0.054152 -0.756986 -5.600805 -2.603616 -2.697833 -27.596905 -16.680405 -1.764642 0.000000 0.000000 0.000000 8.639964 0.097513 -0.735915 1.355729 -3.098225 -3.740171 2.581985 -4.574042 0.336361 -13.993317 -15.244858 -29.457742 1.039457 -45.771878 0.838418 0.000000 0.000000 0.000000 9.134063 0.345021 -0.636856 1.605007 9.379608 4.019143 3.045015 2.687369 -0.530950 -17.010489 -7.085003 64.310452 4.460105 85.647553 -5.459344 0.000000 0.000000 0.000000 
10.314341 92.557915 131.398804 0.000000 0.000000 0.000000 17.986149 35.874629 -10.530379 -62.453296 5.949640 8.863542 36.935925 13.247201 -4.439951 12.972389 24.268437 -1.873982 -5.322614 0.087804 0.503825 0.000000 0.000000 0.000000 19.988444 36.877349 -11.321349 -31.191217 -16.551215 -0.649384 39.808651 -5.465333 -4.917683 -21.892413 -15.598045 3.896641 -2.588370 0.889892 -3.244272 0.000000 0.000000 0.000000 18.216989 36.490381 -10.411015 8.128540 4.510594 2.060886 6.461045 1.058444 -1.012239 1.233070 3.176460 0.062820 0.000000 0.000000 0.000000 7.128568 0.703568 -1.004203 -5.579147 -3.439022 -3.185433 -25.913968 -19.680019 -0.321861 0.000000 0.000000 0.000000 7.679394 0.887643 -0.809117 1.228946 -2.255855 -2.924451 2.139923 -4.645878 0.065954 -13.493760 -14.440456 -28.748580 0.745266 -50.798811 0.740782 0.000000 0.000000 0.000000 8.013040 0.983604 -0.862387 1.464617 9.497599 3.587235 3.291031 2.288957 -0.800831 -16.801468 -6.828859 66.040805 9.575104 86.868436 -10.748065 0.000000 0.000000 0.000000 
